<?xml version="1.0" encoding="UTF-8"?>
<svg xmlns="http://www.w3.org/2000/svg" xmlns:xlink="http://www.w3.org/1999/xlink" width="157px" height="90px" viewBox="0 0 157 90" version="1.1">
  <!-- Generator: Sketch 61 (89581) - https://sketch.com -->
  <title>Brand / UnternehmerTUM Logo</title>
  <desc>Created with Sketch.</desc>
  <g id="Brand-/-UnternehmerTUM-Logo" stroke="none" stroke-width="1" fill="none" fill-rule="evenodd">
    <path d="M23.0005658,21.9667484 C22.4346815,20.5554729 21.6394354,19.3624553 20.6155326,18.3874605 C19.5911597,17.4122309 18.3381302,16.6684157 16.8562088,16.15531 C15.3740525,15.6424393 13.7299799,15.3856515 11.9246961,15.3856515 L11.9246961,21.929863 C13.3340019,21.9378509 14.4801057,22.3598005 15.3606574,23.1985309 C16.2499042,24.0450142 16.6947626,25.2509535 16.6947626,26.8161136 L16.6947626,28.0955886 L23.8493923,28.0955886 L23.8493923,26.8161136 C23.8493923,24.9941657 23.5664501,23.377554 23.0005658,21.9667484 L23.0005658,21.9667484 Z M16.6947626,16.0848285 L23.8493923,16.0848285 L23.8493923,0 L16.6947626,0 L16.6947626,16.0848285 Z M7.15486469,17.0497208 L7.15486469,14.2403264 L7.15486469,0 L0,0 L0,14.2403264 L0,17.0497208 C0,18.8719037 0.283177164,20.4885154 0.84906149,21.8990861 C1.41494581,23.3105965 2.20995689,24.5036141 3.23409472,25.4783739 C4.25846755,26.4538385 5.51173213,27.1976537 6.99318345,27.7107594 C8.47557478,28.2236301 10.1196473,28.4804179 11.9249311,28.4804179 L11.9249311,21.9362064 C10.5158604,21.9279835 9.36975662,21.5062689 8.48896988,20.6675385 C7.59948809,19.8208202 7.15486469,18.6151159 7.15486469,17.0497208 L7.15486469,17.0497208 Z M80.1910729,61.5195821 L80.1910729,89.6151708 L73.3196204,89.6151708 L73.3196204,71.7953216 L65.5180308,81.7637615 L57.7972818,71.8338515 L57.7972818,89.6151708 L50.8851739,89.6151708 L50.8851739,61.5195821 L57.5951802,61.5195821 L65.5586861,72.0265011 L73.7642438,61.5195821 L80.1910729,61.5195821 Z M41.2336502,89.2301066 C39.7512588,89.7432122 38.1071863,90 36.3023725,90 C34.4691235,90 32.8189408,89.7432122 31.3504146,89.2301066 C29.8814184,88.7174708 28.6354389,87.9734206 27.611301,86.997956 C26.5869282,86.0231963 25.7923871,84.8301786 25.2265028,83.4189032 C24.6606185,82.0080975 24.3776763,80.3912509 24.3776763,78.5693029 L24.3776763,61.5195821 L31.532306,61.5195821 L31.532306,78.5693029 C31.532306,80.1344631 31.9567193,81.3401674 32.8055457,82.1871207 C33.6543722,83.033604 34.806586,83.4571981 36.2617172,83.4571981 C37.6898231,83.4571981 38.8488519,83.033604 39.7380987,82.1871207 C40.6273455,81.3401674 41.0719689,80.1344631 41.0719689,78.5693029 L41.0719689,61.5195821 L48.2265986,61.5195821 L48.2265986,78.5693029 C48.2265986,80.3912509 47.9436564,82.0080975 47.3777721,83.4189032 C46.8118878,84.8301786 46.0166417,86.0231963 44.9929739,86.997956 C43.9683661,87.9734206 42.7153365,88.7174708 41.2336502,89.2301066 L41.2336502,89.2301066 Z M21.712991,61.5195821 L21.712991,67.7160847 L14.1675533,67.7160847 L14.1675533,89.6154057 L7.62251826,89.6154057 L7.62251826,67.7160847 L0,67.7160847 L0,61.5195821 L21.712991,61.5195821 Z M148.006246,43.248886 C147.291841,43.9800146 146.180282,44.3458138 144.671336,44.3458138 L139.537487,44.3458138 L139.537487,36.8792338 L144.671336,36.8792338 C146.153022,36.8792338 147.258236,37.2062682 147.985801,37.8605718 C148.713367,38.5148755 149.077149,39.4193887 149.077149,40.5738764 C149.077149,41.6264008 148.719712,42.5175225 148.006246,43.248886 L148.006246,43.248886 Z M151.502368,48.6947601 C152.984054,47.873885 154.150368,46.7384273 154.99896,45.2886219 C155.848021,43.8392864 156.272199,42.2163314 156.272199,40.4199917 C156.272199,39.0862459 156.029913,37.8354334 155.544869,36.6675542 C155.05959,35.5003798 154.34542,34.4805119 153.402358,33.6077154 C152.458825,32.7358587 151.300501,32.0430251 149.925976,31.5294495 C148.55192,31.0165788 146.975293,30.7597911 145.196565,30.7597911 L132.504118,30.7597911 L132.504118,58.8553797 L139.537487,58.8553797 L139.537487,50.4267266 L145.075539,50.4267266 L149.239066,58.8553797 L157,58.8553797 L151.502368,48.6947601 Z M129.702426,30.7597911 L129.702426,36.9945886 L116.363019,36.9945886 L116.363019,41.6130093 L129.702426,41.6130093 L129.702426,47.8478068 L116.363019,47.8478068 L116.363019,52.6203472 L129.702426,52.6203472 L129.702426,58.8553797 L109.329416,58.8553797 L109.329416,30.7597911 L129.702426,30.7597911 Z M106.66473,30.7597911 L106.66473,58.8553797 L99.7928077,58.8553797 L99.7928077,41.0357655 L91.9914531,51.0039705 L84.2709391,41.0742954 L84.2709391,58.8553797 L77.3583613,58.8553797 L77.3583613,30.7597911 L84.0686026,30.7597911 L92.0318734,41.26671 L100.237431,30.7597911 L106.66473,30.7597911 Z M74.6939109,30.7597911 L74.6939109,58.8553797 L67.6201218,58.8553797 L67.6201218,48.0404564 L57.959198,48.0404564 L57.959198,58.8553797 L50.8851739,58.8553797 L50.8851739,30.7597911 L57.959198,30.7597911 L57.959198,41.4205947 L67.6201218,41.4205947 L67.6201218,30.7597911 L74.6939109,30.7597911 Z M48.2207236,30.7597911 L48.2207236,36.9945886 L34.8813166,36.9945886 L34.8813166,41.6130093 L48.2207236,41.6130093 L48.2207236,47.8478068 L34.8813166,47.8478068 L34.8813166,52.6203472 L48.2207236,52.6203472 L48.2207236,58.8553797 L27.8477128,58.8553797 L27.8477128,30.7597911 L48.2207236,30.7597911 Z M25.1832625,30.7597911 L25.1832625,58.8553797 L18.3517603,58.8553797 L6.7506616,41.1896502 L6.7506616,58.8553797 L0,58.8553797 L0,30.7597911 L7.35720123,30.7597911 L18.4730212,47.6170973 L18.4730212,30.7597911 L25.1832625,30.7597911 Z M116.504725,12.4890949 C115.79032,13.2202235 114.678762,13.5860227 113.169815,13.5860227 L108.036436,13.5860227 L108.036436,6.11944273 L113.169815,6.11944273 C114.651501,6.11944273 115.756715,6.4464771 116.48428,7.10078078 C117.212081,7.75508446 117.575864,8.65959763 117.575864,9.81408535 C117.575864,10.8666098 117.218191,11.7577314 116.504725,12.4890949 L116.504725,12.4890949 Z M120.001082,17.934969 C121.482769,17.114094 122.648847,15.9786363 123.497909,14.5288309 C124.3465,13.0794954 124.770914,11.4565403 124.770914,9.66020064 C124.770914,8.32645486 124.528392,7.07564236 124.043348,5.90776315 C123.558304,4.74058876 122.843899,3.72072079 121.901307,2.84815926 C120.957305,1.9760676 119.798981,1.28323401 118.42469,0.769658478 C117.0504,0.256787764 115.473773,0 113.695279,0 L101.002597,0 L101.002597,28.0955886 L108.036436,28.0955886 L108.036436,19.6669355 L113.574018,19.6669355 L117.737545,28.0955886 L125.498479,28.0955886 L120.001082,17.934969 Z M98.3383816,0 L98.3383816,6.23479752 L84.9987397,6.23479752 L84.9987397,10.8532183 L98.3383816,10.8532183 L98.3383816,17.0880158 L84.9987397,17.0880158 L84.9987397,21.8605562 L98.3383816,21.8605562 L98.3383816,28.0955886 L77.9653709,28.0955886 L77.9653709,0 L98.3383816,0 Z M75.6874985,0 L75.6874985,6.19650255 L68.1420608,6.19650255 L68.1420608,28.0958236 L61.5972608,28.0958236 L61.5972608,6.19650255 L53.9747425,6.19650255 L53.9747425,0 L75.6874985,0 Z M51.6971051,0 L51.6971051,28.0955886 L44.8658379,28.0955886 L33.2645043,10.4300941 L33.2645043,28.0955886 L26.5140777,28.0955886 L26.5140777,0 L33.8710439,0 L44.9870989,16.8573062 L44.9870989,0 L51.6971051,0 Z" id="Shape" fill="#000000"></path>
  </g>
</svg>
